<?xml version="1.0" encoding="iso-8859-1"?>
<!-- Generator: Adobe Illustrator 18.0.0, SVG Export Plug-In . SVG Version: 6.00 Build 0)  -->
<!DOCTYPE svg PUBLIC "-//W3C//DTD SVG 1.1//EN" "http://www.w3.org/Graphics/SVG/1.1/DTD/svg11.dtd">
<svg version="1.1" id="Capa_1" xmlns="http://www.w3.org/2000/svg" xmlns:xlink="http://www.w3.org/1999/xlink" x="0px" y="0px"
	 viewBox="0 0 297 297" style="enable-background:new 0 0 297 297;" xml:space="preserve">
<path d="M251.926,153.404c-11.276-16.165-35.564-28.644-55.294-28.644h-73.166L105.772,10.605C104.83,4.531,99.6,0,93.453,0H51.431
	c-3.487,0-6.816,1.327-9.176,3.893s-3.882,5.938-3.59,9.414l13.996,170.791v100.436c0,6.885,5.794,12.466,12.679,12.466
	s12.679-5.581,12.679-12.466v-87.758h134.903v87.758c0,6.885,5.287,12.466,12.172,12.466c6.885,0,12.172-5.581,12.172-12.466
	v-89.039c8.114-1.737,15.008-6.117,18.481-12.773C260.259,174.073,258.93,163.444,251.926,153.404z M229.236,171.418H95.747
	l22.163-22.315h78.722c11.607,0,28.215,8.766,34.846,18.27C231.478,167.374,234.471,171.418,229.236,171.418z M82.77,24.343
	L99.49,132.321l-23.492,23.298L64.987,24.343H82.77z"/>
<g>
</g>
<g>
</g>
<g>
</g>
<g>
</g>
<g>
</g>
<g>
</g>
<g>
</g>
<g>
</g>
<g>
</g>
<g>
</g>
<g>
</g>
<g>
</g>
<g>
</g>
<g>
</g>
<g>
</g>
</svg>
