<?xml version="1.0" encoding="iso-8859-1"?>
<!-- Generator: Adobe Illustrator 19.0.0, SVG Export Plug-In . SVG Version: 6.00 Build 0)  -->
<svg version="1.1" id="Layer_1" xmlns="http://www.w3.org/2000/svg" xmlns:xlink="http://www.w3.org/1999/xlink" x="0px" y="0px"
	 viewBox="0 0 511.999 511.999" style="enable-background:new 0 0 511.999 511.999;" xml:space="preserve">
<path style="fill:#FFA400;" d="M195.08,321.746c-0.002,26.834,10.447,52.063,29.425,71.041
	c39.167,39.166,102.896,39.166,142.064,0.001l13.021-13.023c39.169-39.167,39.169-102.897,0-142.063
	c-18.975-18.976-44.207-29.426-71.042-29.422l-1.929,0.001c-21.196-0.49-41.049-8.971-56.094-24.016
	c-15.054-15.054-23.54-34.926-24.017-56.141l0.002-1.882c0.003-26.834-10.447-52.064-29.422-71.041
	c-39.166-39.167-102.896-39.167-142.063,0L42.002,68.225C2.837,107.392,2.837,171.121,42.003,210.288
	c18.977,18.977,44.206,29.426,71.04,29.424l1.944-0.002c21.191,0.492,41.038,8.977,56.079,24.017
	c15.06,15.06,23.547,34.94,24.017,56.162L195.08,321.746z M250.551,366.739c-16.021-16.02-24.03-37.017-24.028-58.014l0.023,0.008
	c0.001-25.717-9.811-51.436-29.432-71.056s-45.337-29.433-71.052-29.433l0.004,0.023c-20.998,0.002-41.995-8.008-58.014-24.028
	c-29.085-29.087-31.762-74.576-8.035-106.685c32.109-23.727,81.939-25.393,111.026,3.693c16.019,16.019,24.029,37.018,24.027,58.015
	l-0.023-0.005c0.001,25.716,9.812,51.432,29.433,71.053c19.621,19.622,45.342,29.433,71.056,29.432l-0.008-0.024
	c20.996-0.001,41.995,8.008,58.015,24.029c29.086,29.086,27.418,78.917,3.694,111.025
	C325.128,398.501,279.638,395.826,250.551,366.739z"/>
<path style="fill:#F6C65B;" d="M208.105,308.723c-0.004,26.833,10.446,52.063,29.422,71.04
	c39.168,39.168,102.897,39.169,142.063,0.001c39.169-39.167,39.169-102.897,0-142.063c-18.975-18.976-44.207-29.426-71.042-29.422
	l-1.929,0.001c-21.196-0.49-41.049-8.971-56.094-24.016c-15.054-15.054-23.54-34.926-24.017-56.141l0.002-1.882
	c0.003-26.834-10.447-52.064-29.422-71.041c-39.166-39.167-102.896-39.167-142.063,0c-39.167,39.166-39.166,102.894,0.001,142.061
	c18.976,18.976,44.206,29.426,71.04,29.424l1.945-0.001c21.19,0.492,41.038,8.976,56.079,24.017
	c15.059,15.058,23.546,34.939,24.015,56.161L208.105,308.723z M250.551,366.739c-16.021-16.02-24.03-37.017-24.028-58.014
	l0.023,0.008c0.001-25.717-9.81-51.436-29.431-71.057c-19.622-19.621-45.337-29.432-71.053-29.432l0.004,0.023
	c-20.998,0.002-41.995-8.008-58.014-24.028c-32.037-32.037-32.037-83.979-0.002-116.016c32.038-32.037,83.979-32.037,116.017,0.001
	c16.019,16.019,24.029,37.017,24.028,58.015l-0.023-0.005c0,25.717,9.811,51.433,29.432,71.055
	c19.621,19.621,45.34,29.431,71.06,29.43l-0.011-0.022c21-0.003,41.995,8.008,58.015,24.028c32.036,32.037,32.039,83.977,0,116.014
	C334.531,398.777,282.589,398.777,250.551,366.739z"/>
<path style="fill:#009BDE;" d="M314.292,314.681c-18.978,18.972-29.429,44.2-29.429,71.038c0,55.39,45.064,100.454,100.453,100.454
	h18.418c55.391,0,100.453-45.064,100.454-100.455c-0.001-26.837-10.452-52.064-29.428-71.037l-1.366-1.364
	c-14.641-15.333-22.682-35.37-22.682-56.644c0-21.29,8.051-41.344,22.716-56.681l1.33-1.328
	c18.976-18.973,29.427-44.203,29.427-71.038c0-55.391-45.061-100.453-100.453-100.453l-18.418-0.001
	c-55.389,0.001-100.453,45.064-100.453,100.454c0,26.838,10.451,52.066,29.428,71.04l1.375,1.372
	c14.637,15.332,22.672,35.366,22.672,56.635c0,21.299-8.058,41.357-22.729,56.696L314.292,314.681z M321.699,385.72
	c0-22.657,9.183-43.17,24.031-58.014l0.009,0.022c18.185-18.184,29.433-43.307,29.432-71.056c0-27.747-11.246-52.871-29.429-71.053
	l-0.012,0.02c-14.849-14.846-24.031-35.357-24.031-58.013c0-41.135,30.273-75.192,69.755-81.117
	c39.483,5.927,75.896,39.983,75.896,81.117c0,22.655-9.183,43.168-24.031,58.013l-0.012-0.021
	c-18.183,18.185-29.431,43.308-29.431,71.054c0,27.75,11.248,52.873,29.434,71.056l0.009-0.022
	c14.851,14.844,24.031,35.356,24.031,58.013c0,41.133-36.413,75.19-75.896,81.118C351.973,460.91,321.699,426.851,321.699,385.72z"
	/>
<path style="fill:#77B8E8;" d="M332.708,314.681c-18.977,18.972-29.429,44.199-29.429,71.036
	c0,55.393,45.063,100.455,100.453,100.455c55.391,0,100.453-45.064,100.454-100.455c-0.001-26.837-10.452-52.064-29.428-71.037
	l-1.366-1.364c-14.641-15.333-22.682-35.37-22.682-56.644c0-21.29,8.051-41.344,22.716-56.681l1.33-1.328
	c18.976-18.973,29.427-44.203,29.427-71.038c0-55.391-45.061-100.453-100.453-100.453c-55.39-0.001-100.453,45.063-100.453,100.453
	c0,26.837,10.452,52.065,29.429,71.038l1.376,1.374c14.636,15.331,22.671,35.365,22.671,56.635c0,21.297-8.058,41.356-22.73,56.693
	L332.708,314.681z M321.699,385.72c0-22.657,9.183-43.17,24.031-58.014l0.009,0.022c18.185-18.184,29.433-43.307,29.433-71.056
	c0.001-27.747-11.247-52.871-29.43-71.053l-0.012,0.02c-14.849-14.846-24.031-35.357-24.031-58.013
	c0-45.307,36.728-82.037,82.033-82.037c45.308,0,82.035,36.728,82.035,82.037c0,22.656-9.182,43.167-24.032,58.013l-0.014-0.02
	c-18.183,18.184-29.43,43.303-29.431,71.054c0.001,27.749,11.249,52.872,29.435,71.055l0.009-0.022
	c14.851,14.845,24.032,35.357,24.031,58.012c0,45.309-36.726,82.037-82.034,82.037C358.428,467.755,321.698,431.027,321.699,385.72z
	"/>
<path d="M480.281,309.152l-1.299-1.298c-13.192-13.849-20.457-32.022-20.457-51.182c0-19.179,7.275-37.365,20.49-51.217l1.268-1.266
	c20.453-20.449,31.716-47.641,31.716-76.564c0-59.698-48.567-108.267-108.266-108.267l-24.67-0.001
	c-59.699,0.001-108.267,48.57-108.267,108.268c0,26.889,9.739,52.276,27.544,72.148c-15.956-2.192-30.738-9.483-42.289-21.034
	c-13.561-13.561-21.276-31.563-21.728-50.703l0.002-1.794c0.004-28.922-11.258-56.113-31.711-76.567
	c-20.418-20.419-47.606-31.664-76.556-31.664S69.92,29.256,49.502,49.676L31.659,67.517
	c-42.213,42.214-42.212,110.901,0.001,153.113c20.45,20.45,47.636,31.713,76.567,31.712h0.008l1.845-0.002
	c19.115,0.467,37.095,8.181,50.642,21.728c13.567,13.567,21.281,31.577,21.728,50.721l-0.003,1.775
	c-0.002,28.922,11.26,56.113,31.713,76.566c18.364,18.363,42.445,29.384,68.254,31.344c17.866,35.275,54.478,59.513,96.649,59.513
	h24.67c59.697-0.001,108.266-48.57,108.267-108.27C511.999,356.794,500.736,329.604,480.281,309.152z M60.551,60.725
	c17.468-17.467,40.731-27.087,65.506-27.087s48.04,9.619,65.506,27.087c17.5,17.501,27.136,40.768,27.133,65.506l-0.002,1.882
	c0,0.061,0.001,0.123,0.002,0.184c0.522,23.213,9.863,45.052,26.304,61.491c16.427,16.426,38.245,25.767,61.439,26.303
	c0.061,0.001,0.1,0.004,0.186,0.002l1.924-0.001h0.02c1.227,0,2.46,0.024,3.691,0.072c0.622,0.951,1.218,1.916,1.793,2.892
	c-1.827-0.113-3.656-0.173-5.483-0.173c-0.196-0.002-0.392,0.006-0.584,0.021c-24.542-0.148-47.59-9.773-64.958-27.14
	c-17.367-17.367-26.991-40.412-27.141-64.949c0.015-0.191,0.022-0.382,0.022-0.574c0.001-24.002-9.344-46.568-26.316-63.541
	c-35.034-35.033-92.037-35.033-127.068-0.001c-3.78,3.78-7.126,7.828-10.091,12.066c-0.628,0.44-1.264,0.871-1.878,1.325
	l0.493,0.666c-23.007,34.861-19.181,82.351,11.478,113.01c16.971,16.971,39.532,26.316,63.532,26.316
	c0.184-0.001,0.388-0.006,0.579-0.022c24.537,0.149,47.583,9.774,64.952,27.142c17.369,17.369,26.994,40.416,27.141,64.955
	c-0.014,0.188-0.021,0.377-0.021,0.567c-0.003,24.002,9.343,46.568,26.317,63.54c7.574,7.576,16.265,13.623,25.874,18.048
	c0.044,1.037,0.1,2.07,0.173,3.1c-10.405-4.595-19.944-11.099-28.021-19.174c-17.501-17.501-27.137-40.768-27.133-65.513
	l0.001-1.862c0-0.058-0.001-0.117-0.002-0.175c-0.514-23.222-9.855-45.067-26.301-61.513
	c-16.424-16.424-38.237-25.765-61.423-26.304c-0.063-0.001-0.132,0.003-0.188-0.002l-1.94,0.001h-0.007
	c-24.744,0-48.008-9.637-65.506-27.135c-17.468-17.468-27.088-40.731-27.088-65.506C33.465,101.456,43.085,78.192,60.551,60.725z
	 M171.75,80.541c-15.143-15.142-36.382-23.644-59.806-23.94c-4.518-0.059-9.058,0.216-13.57,0.771
	c26.755-10.713,58.532-5.258,80.167,16.377c13.886,13.886,21.591,32.301,21.737,51.915c-0.014,0.189-0.021,0.379-0.021,0.57
	c0,28.928,11.266,56.124,31.72,76.58c20.457,20.456,47.654,31.72,76.585,31.719c0.189,0,0.375-0.006,0.561-0.02
	c4.051,0.031,8.111,0.403,12.126,1.102c0.683,2.324,1.253,4.686,1.709,7.079c-10.237-3.928-21.175-5.972-32.248-5.971
	c-0.193,0-0.385,0.007-0.577,0.022c-24.537-0.149-47.579-9.775-64.945-27.141c-17.364-17.363-26.99-40.407-27.142-64.942
	c0.015-0.192,0.021-0.385,0.021-0.58C198.068,120.079,188.723,97.514,171.75,80.541z M225.212,392.08
	c-17.501-17.501-27.138-40.768-27.136-65.505l0.003-1.86c0-0.061-0.001-0.123-0.002-0.183c-0.515-23.221-9.856-45.067-26.304-61.514
	c-16.424-16.425-38.237-25.765-61.422-26.304c-0.064-0.001-0.139-0.003-0.192-0.002l-1.934,0.002h-0.007
	c-24.745,0-48.009-9.637-65.506-27.135c-23.231-23.231-31.495-55.827-24.844-85.746c-0.018,0.798-0.029,1.597-0.029,2.397
	c0.001,28.95,11.246,56.138,31.665,76.556c20.45,20.45,47.638,31.713,76.562,31.712h0.008l1.849-0.001
	c19.115,0.467,37.097,8.181,50.643,21.728c13.566,13.565,21.28,31.576,21.727,50.721l-0.001,1.774
	c-0.004,28.921,11.257,56.112,31.711,76.565c11.745,11.745,26.137,20.647,41.839,25.942c0.548,2.262,1.161,4.5,1.849,6.704
	C256.629,414.833,239.024,405.893,225.212,392.08z M271.53,373.07c-5.613-3.232-10.788-7.191-15.453-11.855
	c-13.887-13.887-21.593-32.304-21.737-51.917c0.014-0.186,0.021-0.374,0.021-0.563c0.001-28.929-11.263-56.126-31.72-76.582
	c-20.456-20.456-47.652-31.721-76.578-31.721c-0.19,0-0.379,0.007-0.567,0.021c-19.613-0.146-38.033-7.851-51.918-21.737
	c-25.137-25.138-28.427-63.962-9.894-92.697c13.875-9.01,31.138-14.02,48.064-13.789c19.324,0.244,36.71,7.12,48.953,19.363
	c13.884,13.884,21.589,32.297,21.737,51.909c-0.015,0.191-0.022,0.383-0.022,0.577c0.001,28.928,11.267,56.123,31.722,76.577
	c20.456,20.457,47.653,31.722,76.581,31.721c0.193,0,0.382-0.007,0.573-0.022c11.468,0.089,22.739,2.826,32.892,7.953
	c-0.86,17.839-8.031,34.62-20.414,47.597l-1.254,1.251C285.075,326.591,274.32,348.932,271.53,373.07z M286.424,385.719
	c0-24.75,9.638-48.016,27.135-65.507l1.317-1.314c0.043-0.043,0.085-0.086,0.127-0.13c16.055-16.785,24.897-38.838,24.897-62.097
	c0-23.227-8.819-45.257-24.834-62.031c-0.044-0.046-0.088-0.091-0.132-0.135l-1.37-1.367
	c-17.501-17.497-27.139-40.763-27.139-65.514c0-32.169,16.485-60.557,41.449-77.172c-0.221,0.217-0.446,0.429-0.665,0.648
	c-20.47,20.47-31.744,47.647-31.744,76.524c0,28.924,11.265,56.115,31.721,76.568l1.308,1.305
	c13.187,13.845,20.447,32.015,20.447,51.175c0,19.187-7.28,37.377-20.505,51.231l-1.253,1.252
	c-20.454,20.448-31.718,47.64-31.718,76.562c0,30.191,12.426,57.529,32.425,77.185C302.919,446.29,286.424,417.896,286.424,385.719z
	 M403.732,478.359c-51.081,0-92.639-41.559-92.639-92.641c0-24.748,9.638-48.014,27.139-65.509l1.317-1.316
	c0.041-0.042,0.082-0.083,0.123-0.126c16.055-16.783,24.897-38.836,24.897-62.095c0-23.227-8.819-45.256-24.832-62.031
	c-0.043-0.045-0.086-0.09-0.13-0.133l-1.373-1.371c-17.502-17.498-27.14-40.764-27.14-65.513c0-24.702,9.649-47.954,27.166-65.473
	c17.519-17.52,40.771-27.167,65.473-27.166c51.081,0,92.639,41.558,92.639,92.639c0,24.749-9.638,48.016-27.134,65.509l-1.332,1.328
	c-0.042,0.043-0.084,0.085-0.126,0.129c-16.046,16.782-24.882,38.83-24.882,62.081c0,23.229,8.823,45.262,24.845,62.04
	c0.042,0.044,0.085,0.089,0.128,0.131l1.364,1.362c17.5,17.498,27.138,40.763,27.139,65.511
	C496.372,436.801,454.813,478.359,403.732,478.359z M467.26,322.179c-0.133-0.133-0.27-0.26-0.412-0.381
	c-17.25-17.455-26.743-40.56-26.744-65.125c0.001-24.56,9.488-47.659,26.73-65.115c0.147-0.126,0.288-0.257,0.425-0.395
	c16.974-16.97,26.322-39.535,26.322-63.539c0-49.544-40.307-89.851-89.849-89.851s-89.847,40.307-89.847,89.851
	c0,24.004,9.348,46.569,26.321,63.538c0.133,0.133,0.272,0.262,0.414,0.384c17.249,17.455,26.74,40.56,26.739,65.124
	c0,24.565-9.491,47.669-26.741,65.125c-0.142,0.122-0.279,0.25-0.413,0.383c-16.973,16.968-26.321,39.533-26.321,63.54
	c-0.001,23.999,9.345,46.561,26.316,63.532c16.97,16.97,39.532,26.316,63.531,26.316c49.543,0,89.848-40.307,89.848-89.85
	C493.581,361.713,484.234,339.149,467.26,322.179z M351.268,180.093c-0.132-0.133-0.269-0.259-0.409-0.381
	c-13.771-13.972-21.345-32.446-21.345-52.087c0-35.647,25.262-65.496,58.821-72.606c32.182,6.72,64.951,35.357,64.951,72.606
	c0,19.637-7.572,38.108-21.336,52.078c-0.144,0.124-0.283,0.254-0.419,0.39c-19.035,19.037-30.105,43.911-31.551,70.584
	c-4.215-6.618-9.183-12.822-14.861-18.5c-2.047-2.048-4.211-4.04-6.451-5.949C373.638,208.97,364.331,193.155,351.268,180.093z
	 M374.696,298.375c1.727-4.143,3.196-8.395,4.395-12.734c2.996,9.171,4.209,18.927,3.474,28.707
	c-0.578,7.688-2.354,15.18-5.205,22.226C378.954,323.664,378.135,310.556,374.696,298.375z M350.856,333.634
	c0.141-0.122,0.277-0.248,0.408-0.38c4.112-4.112,7.846-8.5,11.199-13.116c0.838,17.659-3.951,36.027-13.666,50.967
	c-5.887,3.807-12.279,6.748-19.036,8.747C331.117,362.42,338.471,346.201,350.856,333.634z M360.035,382.373
	c4.268-2.991,8.307-6.358,12.056-10.109c15.195-15.193,24.448-35.347,26.057-56.746c1.522-20.251-3.87-40.42-15.182-57.117
	c0.009-0.576,0.022-1.151,0.022-1.729c0-1.065-0.021-2.126-0.05-3.186c11.822,15.865,18.216,35.053,18.216,55.246
	c0,24.775-9.619,48.04-27.088,65.507c-12.066,12.066-26.959,20.419-43.414,24.414c-0.158-0.906-0.307-1.816-0.432-2.731
	c9.963-2.456,19.334-6.569,27.817-12.178L360.035,382.373z M388.311,458.329c-13.94-2.932-26.752-9.818-37.06-20.128
	c-4.566-4.565-8.45-9.629-11.631-15.057c10.19-5.145,19.476-11.835,27.657-20.014l17.84-17.842l0,0
	c19.013-19.012,30.066-43.894,31.499-70.602c4.23,6.64,9.215,12.866,14.916,18.567c0.131,0.131,0.268,0.258,0.407,0.379
	c13.77,13.968,21.344,32.442,21.344,52.087C453.285,422.977,420.5,451.62,388.311,458.329z M434.254,453.347
	c3.706-2.971,7.226-6.19,10.498-9.664c15.58-16.547,24.159-37.133,24.159-57.963c0-24.007-9.349-46.573-26.322-63.539
	c-0.132-0.133-0.269-0.26-0.409-0.381c-17.251-17.455-26.744-40.561-26.744-65.127c0-24.56,9.487-47.659,26.732-65.117
	c0.146-0.125,0.285-0.255,0.422-0.392c16.974-16.97,26.321-39.535,26.321-63.538c0-20.832-8.58-41.417-24.16-57.964
	c-3.273-3.476-6.795-6.696-10.504-9.668c25.744,11.662,43.707,37.581,43.707,67.633c0,19.636-7.572,38.106-21.335,52.076
	c-0.146,0.125-0.285,0.256-0.423,0.392c-20.454,20.455-31.718,47.651-31.719,76.58c0.001,28.93,11.268,56.126,31.724,76.58
	c0.131,0.131,0.267,0.257,0.406,0.378c13.771,13.971,21.346,32.444,21.345,52.086C477.953,415.767,459.993,441.684,434.254,453.347z
	"/>
<g>
</g>
<g>
</g>
<g>
</g>
<g>
</g>
<g>
</g>
<g>
</g>
<g>
</g>
<g>
</g>
<g>
</g>
<g>
</g>
<g>
</g>
<g>
</g>
<g>
</g>
<g>
</g>
<g>
</g>
</svg>
